# xmcd
#
# Track frame offsets: 
#        173
#        18758
#        37871
#        51463
#        71797
#        89763
#        108515
#        135012
#        149221
#        162553
#        180378
#        201138
#        218921
#
# Disc length: 3174 seconds
#
# Revision: 2
# Processed by: cddbd v1.5.2PL0 Copyright (c) Steve Scherf et al.
# Submitted via: ExactAudioCopy v0.99pb5
#
DISCID=bf0c640d
DTITLE=John Campbelljohn Trio - The World Is Crazy (Live in Germany)
DYEAR=2003
DGENRE=Blues
TTITLE0=No Philosopher
TTITLE1=Rollin' and Tumblin'
TTITLE2=Honey, I've Had My Fill
TTITLE3=Heart Like A Stone
TTITLE4=Excuse My Behavior
TTITLE5=I'd Rather Be Rich Than Famous
TTITLE6=Nerves Of Steel
TTITLE7=I Wanna Get Up
TTITLE8=Ready For A Riot
TTITLE9=Martha Mae
TTITLE10=The Word Is Crazy
TTITLE11=Punching Bag
TTITLE12=Pretty Paula Doy
EXTD=
EXTT0=
EXTT1=
EXTT2=
EXTT3=
EXTT4=
EXTT5=
EXTT6=
EXTT7=
EXTT8=
EXTT9=
EXTT10=
EXTT11=
EXTT12=
PLAYORDER=
